<mxfile host="65bd71144e">
    <diagram id="fQRx8zBcLPSwf1lLUpr7" name="第 1 页">
        <mxGraphModel dx="597" dy="1476" grid="1" gridSize="10" guides="1" tooltips="1" connect="1" arrows="1" fold="1" page="1" pageScale="1" pageWidth="827" pageHeight="1169" math="0" shadow="0">
            <root>
                <mxCell id="0"/>
                <mxCell id="1" parent="0"/>
                <mxCell id="38" value="" style="rounded=1;whiteSpace=wrap;html=1;" vertex="1" parent="1">
                    <mxGeometry x="1070" y="10" width="200" height="60" as="geometry"/>
                </mxCell>
                <mxCell id="2" value="工具" style="text;html=1;align=center;verticalAlign=middle;resizable=0;points=[];autosize=1;strokeColor=none;fillColor=none;" parent="1" vertex="1">
                    <mxGeometry x="20" y="120" width="40" height="20" as="geometry"/>
                </mxCell>
                <mxCell id="3" value="基础" style="text;html=1;align=center;verticalAlign=middle;resizable=0;points=[];autosize=1;strokeColor=none;fillColor=none;" parent="1" vertex="1">
                    <mxGeometry x="20" y="200" width="40" height="20" as="geometry"/>
                </mxCell>
                <mxCell id="4" value="设计模式" style="rounded=1;whiteSpace=wrap;html=1;" parent="1" vertex="1">
                    <mxGeometry x="80" y="100" width="340" height="60" as="geometry"/>
                </mxCell>
                <mxCell id="5" value="组织模块" style="rounded=1;whiteSpace=wrap;html=1;" parent="1" vertex="1">
                    <mxGeometry x="80" y="190" width="100" height="40" as="geometry"/>
                </mxCell>
                <mxCell id="6" value="设计沟通" style="rounded=1;whiteSpace=wrap;html=1;" parent="1" vertex="1">
                    <mxGeometry x="200" y="190" width="100" height="40" as="geometry"/>
                </mxCell>
                <mxCell id="7" value="代码质量" style="rounded=1;whiteSpace=wrap;html=1;" parent="1" vertex="1">
                    <mxGeometry x="320" y="190" width="100" height="40" as="geometry"/>
                </mxCell>
                <mxCell id="8" value="实体展现" style="text;html=1;align=center;verticalAlign=middle;resizable=0;points=[];autosize=1;strokeColor=none;fillColor=none;" parent="1" vertex="1">
                    <mxGeometry x="10" y="40" width="60" height="20" as="geometry"/>
                </mxCell>
                <mxCell id="9" value="系统本身" style="whiteSpace=wrap;html=1;" parent="1" vertex="1">
                    <mxGeometry x="80" y="20" width="340" height="60" as="geometry"/>
                </mxCell>
                <mxCell id="10" value="" style="endArrow=none;dashed=1;html=1;" parent="1" edge="1">
                    <mxGeometry width="50" height="50" relative="1" as="geometry">
                        <mxPoint x="850" y="240" as="sourcePoint"/>
                        <mxPoint x="850" as="targetPoint"/>
                    </mxGeometry>
                </mxCell>
                <mxCell id="23" value="" style="edgeStyle=none;html=1;" edge="1" parent="1" source="11">
                    <mxGeometry relative="1" as="geometry">
                        <mxPoint x="530" y="120" as="targetPoint"/>
                    </mxGeometry>
                </mxCell>
                <mxCell id="11" value="" style="shape=curlyBracket;whiteSpace=wrap;html=1;rounded=1;" parent="1" vertex="1">
                    <mxGeometry x="530" y="10" width="20" height="220" as="geometry"/>
                </mxCell>
                <mxCell id="12" value="五大原则" style="text;html=1;align=center;verticalAlign=middle;resizable=0;points=[];autosize=1;strokeColor=none;fillColor=none;" parent="1" vertex="1">
                    <mxGeometry x="460" y="110" width="60" height="20" as="geometry"/>
                </mxCell>
                <mxCell id="13" value="开闭原则-OCP" style="text;html=1;align=center;verticalAlign=middle;resizable=0;points=[];autosize=1;strokeColor=none;fillColor=none;" parent="1" vertex="1">
                    <mxGeometry x="565" y="30" width="90" height="20" as="geometry"/>
                </mxCell>
                <mxCell id="14" value="开：系统拓展；闭：修改关闭" style="text;html=1;align=center;verticalAlign=middle;resizable=0;points=[];autosize=1;strokeColor=none;fillColor=none;" parent="1" vertex="1">
                    <mxGeometry x="670" y="30" width="170" height="20" as="geometry"/>
                </mxCell>
                <mxCell id="15" value="单一职责原则-SRP" style="text;html=1;align=center;verticalAlign=middle;resizable=0;points=[];autosize=1;strokeColor=none;fillColor=none;" vertex="1" parent="1">
                    <mxGeometry x="550" y="70" width="120" height="20" as="geometry"/>
                </mxCell>
                <mxCell id="16" value="岗位职责单一，互不重叠" style="text;html=1;align=center;verticalAlign=middle;resizable=0;points=[];autosize=1;strokeColor=none;fillColor=none;" vertex="1" parent="1">
                    <mxGeometry x="670" y="70" width="150" height="20" as="geometry"/>
                </mxCell>
                <mxCell id="17" value="依赖倒置原则-DIP" style="text;html=1;align=center;verticalAlign=middle;resizable=0;points=[];autosize=1;strokeColor=none;fillColor=none;" vertex="1" parent="1">
                    <mxGeometry x="555" y="110" width="110" height="20" as="geometry"/>
                </mxCell>
                <mxCell id="18" value="上层不应依赖下层实现" style="text;html=1;align=center;verticalAlign=middle;resizable=0;points=[];autosize=1;strokeColor=none;fillColor=none;" vertex="1" parent="1">
                    <mxGeometry x="670" y="110" width="140" height="20" as="geometry"/>
                </mxCell>
                <mxCell id="20" value="接口隔离原则(接口)-ISP" style="text;html=1;align=center;verticalAlign=middle;resizable=0;points=[];autosize=1;strokeColor=none;fillColor=none;" vertex="1" parent="1">
                    <mxGeometry x="610" y="150" width="140" height="20" as="geometry"/>
                </mxCell>
                <mxCell id="21" value="里氏替换原则-LSP" style="text;html=1;align=center;verticalAlign=middle;resizable=0;points=[];autosize=1;strokeColor=none;fillColor=none;" vertex="1" parent="1">
                    <mxGeometry x="555" y="190" width="110" height="20" as="geometry"/>
                </mxCell>
                <mxCell id="22" value="子类可以拓展，不可以改变" style="text;html=1;align=center;verticalAlign=middle;resizable=0;points=[];autosize=1;strokeColor=none;fillColor=none;" vertex="1" parent="1">
                    <mxGeometry x="665" y="190" width="160" height="20" as="geometry"/>
                </mxCell>
                <mxCell id="24" value="模式分类" style="text;html=1;align=center;verticalAlign=middle;resizable=0;points=[];autosize=1;strokeColor=none;fillColor=none;" vertex="1" parent="1">
                    <mxGeometry x="930" y="-30" width="60" height="20" as="geometry"/>
                </mxCell>
                <mxCell id="25" value="" style="shape=curlyBracket;whiteSpace=wrap;html=1;rounded=1;" vertex="1" parent="1">
                    <mxGeometry x="870" y="10" width="20" height="220" as="geometry"/>
                </mxCell>
                <mxCell id="26" value="创建型&lt;br&gt;(创建元素)" style="text;html=1;align=center;verticalAlign=middle;resizable=0;points=[];autosize=1;strokeColor=none;fillColor=none;" vertex="1" parent="1">
                    <mxGeometry x="925" y="25" width="70" height="30" as="geometry"/>
                </mxCell>
                <mxCell id="27" value="" style="endArrow=none;dashed=1;html=1;" edge="1" parent="1">
                    <mxGeometry width="50" height="50" relative="1" as="geometry">
                        <mxPoint x="1040" y="240" as="sourcePoint"/>
                        <mxPoint x="1040" as="targetPoint"/>
                    </mxGeometry>
                </mxCell>
                <mxCell id="28" value="方法论" style="text;html=1;align=center;verticalAlign=middle;resizable=0;points=[];autosize=1;strokeColor=none;fillColor=none;" vertex="1" parent="1">
                    <mxGeometry x="1145" y="-30" width="50" height="20" as="geometry"/>
                </mxCell>
                <mxCell id="30" value="工厂模式" style="text;html=1;align=center;verticalAlign=middle;resizable=0;points=[];autosize=1;strokeColor=none;fillColor=none;" vertex="1" parent="1">
                    <mxGeometry x="1085" y="10" width="60" height="20" as="geometry"/>
                </mxCell>
                <mxCell id="31" value="生产同类型商品" style="text;html=1;align=center;verticalAlign=middle;resizable=0;points=[];autosize=1;strokeColor=none;fillColor=none;" vertex="1" parent="1">
                    <mxGeometry x="1165" y="10" width="100" height="20" as="geometry"/>
                </mxCell>
                <mxCell id="32" value="建造者模式" style="text;html=1;align=center;verticalAlign=middle;resizable=0;points=[];autosize=1;strokeColor=none;fillColor=none;" vertex="1" parent="1">
                    <mxGeometry x="1075" y="30" width="80" height="20" as="geometry"/>
                </mxCell>
                <mxCell id="33" value="独立生产商品" style="text;html=1;align=center;verticalAlign=middle;resizable=0;points=[];autosize=1;strokeColor=none;fillColor=none;" vertex="1" parent="1">
                    <mxGeometry x="1170" y="30" width="90" height="20" as="geometry"/>
                </mxCell>
                <mxCell id="34" value="单例模式" style="text;html=1;align=center;verticalAlign=middle;resizable=0;points=[];autosize=1;strokeColor=none;fillColor=none;" vertex="1" parent="1">
                    <mxGeometry x="1085" y="50" width="60" height="20" as="geometry"/>
                </mxCell>
                <mxCell id="35" value="vue-router" style="text;html=1;align=center;verticalAlign=middle;resizable=0;points=[];autosize=1;strokeColor=none;fillColor=none;" vertex="1" parent="1">
                    <mxGeometry x="1180" y="50" width="70" height="20" as="geometry"/>
                </mxCell>
                <mxCell id="39" value="行为型&lt;br&gt;(模块行为总结)" style="text;html=1;align=center;verticalAlign=middle;resizable=0;points=[];autosize=1;strokeColor=none;fillColor=none;" vertex="1" parent="1">
                    <mxGeometry x="910" y="190" width="100" height="30" as="geometry"/>
                </mxCell>
                <mxCell id="41" value="" style="rounded=1;whiteSpace=wrap;html=1;" vertex="1" parent="1">
                    <mxGeometry x="1070" y="170" width="200" height="80" as="geometry"/>
                </mxCell>
                <mxCell id="42" value="命令模式" style="text;html=1;align=center;verticalAlign=middle;resizable=0;points=[];autosize=1;strokeColor=none;fillColor=none;" vertex="1" parent="1">
                    <mxGeometry x="1085" y="170" width="60" height="20" as="geometry"/>
                </mxCell>
                <mxCell id="43" value="包裹传递命令" style="text;html=1;align=center;verticalAlign=middle;resizable=0;points=[];autosize=1;strokeColor=none;fillColor=none;" vertex="1" parent="1">
                    <mxGeometry x="1170" y="170" width="90" height="20" as="geometry"/>
                </mxCell>
                <mxCell id="44" value="模板模式" style="text;html=1;align=center;verticalAlign=middle;resizable=0;points=[];autosize=1;strokeColor=none;fillColor=none;" vertex="1" parent="1">
                    <mxGeometry x="1085" y="190" width="60" height="20" as="geometry"/>
                </mxCell>
                <mxCell id="45" value="重编排，易拓展" style="text;html=1;align=center;verticalAlign=middle;resizable=0;points=[];autosize=1;strokeColor=none;fillColor=none;" vertex="1" parent="1">
                    <mxGeometry x="1165" y="190" width="100" height="20" as="geometry"/>
                </mxCell>
                <mxCell id="46" value="观察者模式" style="text;html=1;align=center;verticalAlign=middle;resizable=0;points=[];autosize=1;strokeColor=none;fillColor=none;" vertex="1" parent="1">
                    <mxGeometry x="1075" y="210" width="80" height="20" as="geometry"/>
                </mxCell>
                <mxCell id="47" value="模块之间实时互通" style="text;html=1;align=center;verticalAlign=middle;resizable=0;points=[];autosize=1;strokeColor=none;fillColor=none;" vertex="1" parent="1">
                    <mxGeometry x="1160" y="210" width="110" height="20" as="geometry"/>
                </mxCell>
                <mxCell id="49" value="结构型&lt;br&gt;(代码结构)" style="text;html=1;align=center;verticalAlign=middle;resizable=0;points=[];autosize=1;strokeColor=none;fillColor=none;" vertex="1" parent="1">
                    <mxGeometry x="925" y="105" width="70" height="30" as="geometry"/>
                </mxCell>
                <mxCell id="50" value="" style="rounded=1;whiteSpace=wrap;html=1;" vertex="1" parent="1">
                    <mxGeometry x="1070" y="90" width="200" height="60" as="geometry"/>
                </mxCell>
                <mxCell id="51" value="适配器模式" style="text;html=1;align=center;verticalAlign=middle;resizable=0;points=[];autosize=1;strokeColor=none;fillColor=none;" vertex="1" parent="1">
                    <mxGeometry x="1075" y="90" width="80" height="20" as="geometry"/>
                </mxCell>
                <mxCell id="52" value="适配已有方案" style="text;html=1;align=center;verticalAlign=middle;resizable=0;points=[];autosize=1;strokeColor=none;fillColor=none;" vertex="1" parent="1">
                    <mxGeometry x="1170" y="90" width="90" height="20" as="geometry"/>
                </mxCell>
                <mxCell id="53" value="*装饰器模式" style="text;html=1;align=center;verticalAlign=middle;resizable=0;points=[];autosize=1;strokeColor=none;fillColor=none;" vertex="1" parent="1">
                    <mxGeometry x="1075" y="110" width="80" height="20" as="geometry"/>
                </mxCell>
                <mxCell id="54" value="增强已有方案" style="text;html=1;align=center;verticalAlign=middle;resizable=0;points=[];autosize=1;strokeColor=none;fillColor=none;" vertex="1" parent="1">
                    <mxGeometry x="1170" y="110" width="90" height="20" as="geometry"/>
                </mxCell>
                <mxCell id="55" value="代理模式" style="text;html=1;align=center;verticalAlign=middle;resizable=0;points=[];autosize=1;strokeColor=none;fillColor=none;" vertex="1" parent="1">
                    <mxGeometry x="1085" y="130" width="60" height="20" as="geometry"/>
                </mxCell>
                <mxCell id="56" value="集约流程" style="text;html=1;align=center;verticalAlign=middle;resizable=0;points=[];autosize=1;strokeColor=none;fillColor=none;" vertex="1" parent="1">
                    <mxGeometry x="1185" y="130" width="60" height="20" as="geometry"/>
                </mxCell>
                <mxCell id="57" value="职责链" style="text;html=1;align=center;verticalAlign=middle;resizable=0;points=[];autosize=1;strokeColor=none;fillColor=none;" vertex="1" parent="1">
                    <mxGeometry x="1087.5" y="230" width="50" height="20" as="geometry"/>
                </mxCell>
                <mxCell id="58" value="单向链执行" style="text;html=1;align=center;verticalAlign=middle;resizable=0;points=[];autosize=1;strokeColor=none;fillColor=none;" vertex="1" parent="1">
                    <mxGeometry x="1172.5" y="230" width="80" height="20" as="geometry"/>
                </mxCell>
                <mxCell id="60" value="carList" style="rounded=1;whiteSpace=wrap;html=1;dashed=1;" vertex="1" parent="1">
                    <mxGeometry x="20" y="500" width="100" height="40" as="geometry"/>
                </mxCell>
                <mxCell id="63" value="" style="group" vertex="1" connectable="0" parent="1">
                    <mxGeometry x="190" y="670" width="120" height="60" as="geometry"/>
                </mxCell>
                <mxCell id="61" value="" style="rounded=1;whiteSpace=wrap;html=1;" vertex="1" parent="63">
                    <mxGeometry width="120" height="60" as="geometry"/>
                </mxCell>
                <mxCell id="62" value="Screen" style="text;html=1;align=center;verticalAlign=middle;resizable=0;points=[];autosize=1;strokeColor=none;fillColor=none;" vertex="1" parent="63">
                    <mxGeometry x="35" width="50" height="20" as="geometry"/>
                </mxCell>
                <mxCell id="85" value="show" style="whiteSpace=wrap;html=1;" vertex="1" parent="63">
                    <mxGeometry x="30" y="40" width="60" height="20" as="geometry"/>
                </mxCell>
                <mxCell id="95" style="edgeStyle=none;html=1;exitX=0.5;exitY=1;exitDx=0;exitDy=0;" edge="1" parent="1" source="64" target="62">
                    <mxGeometry relative="1" as="geometry"/>
                </mxCell>
                <mxCell id="96" style="edgeStyle=none;html=1;exitX=0.5;exitY=0;exitDx=0;exitDy=0;entryX=0.5;entryY=1;entryDx=0;entryDy=0;" edge="1" parent="1" source="64" target="90">
                    <mxGeometry relative="1" as="geometry"/>
                </mxCell>
                <mxCell id="97" style="edgeStyle=none;html=1;exitX=0;exitY=0.5;exitDx=0;exitDy=0;entryX=1;entryY=0.5;entryDx=0;entryDy=0;" edge="1" parent="1" source="64" target="60">
                    <mxGeometry relative="1" as="geometry"/>
                </mxCell>
                <mxCell id="98" style="edgeStyle=none;html=1;exitX=1;exitY=0.5;exitDx=0;exitDy=0;entryX=0;entryY=0.5;entryDx=0;entryDy=0;" edge="1" parent="1" source="64" target="75">
                    <mxGeometry relative="1" as="geometry"/>
                </mxCell>
                <mxCell id="64" value="" style="rounded=1;whiteSpace=wrap;html=1;" vertex="1" parent="1">
                    <mxGeometry x="190" y="420" width="120" height="200" as="geometry"/>
                </mxCell>
                <mxCell id="65" value="Park" style="text;html=1;align=center;verticalAlign=middle;resizable=0;points=[];autosize=1;strokeColor=none;fillColor=none;" vertex="1" parent="1">
                    <mxGeometry x="230" y="420" width="40" height="20" as="geometry"/>
                </mxCell>
                <mxCell id="66" value="" style="group" vertex="1" connectable="0" parent="1">
                    <mxGeometry x="190" y="310" width="120" height="60" as="geometry"/>
                </mxCell>
                <mxCell id="67" value="" style="rounded=1;whiteSpace=wrap;html=1;" vertex="1" parent="66">
                    <mxGeometry width="120" height="60" as="geometry"/>
                </mxCell>
                <mxCell id="68" value="Camera" style="text;html=1;align=center;verticalAlign=middle;resizable=0;points=[];autosize=1;strokeColor=none;fillColor=none;" vertex="1" parent="66">
                    <mxGeometry x="30" width="60" height="20" as="geometry"/>
                </mxCell>
                <mxCell id="90" value="shot" style="whiteSpace=wrap;html=1;" vertex="1" parent="66">
                    <mxGeometry x="30" y="40" width="60" height="20" as="geometry"/>
                </mxCell>
                <mxCell id="71" value="" style="group" vertex="1" connectable="0" parent="1">
                    <mxGeometry x="414" y="555" width="120" height="90" as="geometry"/>
                </mxCell>
                <mxCell id="72" value="" style="rounded=1;whiteSpace=wrap;html=1;" vertex="1" parent="71">
                    <mxGeometry width="120" height="60" as="geometry"/>
                </mxCell>
                <mxCell id="73" value="Place" style="text;html=1;align=center;verticalAlign=middle;resizable=0;points=[];autosize=1;strokeColor=none;fillColor=none;" vertex="1" parent="71">
                    <mxGeometry x="35" width="50" height="20" as="geometry"/>
                </mxCell>
                <mxCell id="81" value="in" style="whiteSpace=wrap;html=1;" vertex="1" parent="71">
                    <mxGeometry y="30" width="60" height="20" as="geometry"/>
                </mxCell>
                <mxCell id="82" value="out" style="whiteSpace=wrap;html=1;" vertex="1" parent="71">
                    <mxGeometry x="60" y="30" width="60" height="20" as="geometry"/>
                </mxCell>
                <mxCell id="74" value="" style="group" vertex="1" connectable="0" parent="1">
                    <mxGeometry x="414" y="420" width="120" height="90" as="geometry"/>
                </mxCell>
                <mxCell id="75" value="" style="rounded=1;whiteSpace=wrap;html=1;" vertex="1" parent="74">
                    <mxGeometry width="120" height="90" as="geometry"/>
                </mxCell>
                <mxCell id="76" value="Floor" style="text;html=1;align=center;verticalAlign=middle;resizable=0;points=[];autosize=1;strokeColor=none;fillColor=none;" vertex="1" parent="74">
                    <mxGeometry x="38.666666666666664" width="40" height="20" as="geometry"/>
                </mxCell>
                <mxCell id="83" value="index" style="text;html=1;align=center;verticalAlign=middle;resizable=0;points=[];autosize=1;strokeColor=none;fillColor=none;" vertex="1" parent="74">
                    <mxGeometry x="38.666666666666664" y="60.00000000000001" width="40" height="20" as="geometry"/>
                </mxCell>
                <mxCell id="109" value="" style="group" vertex="1" connectable="0" parent="74">
                    <mxGeometry x="7.25" y="26.25" width="102.75" height="23.75" as="geometry"/>
                </mxCell>
                <mxCell id="108" value="" style="rounded=1;whiteSpace=wrap;html=1;" vertex="1" parent="109">
                    <mxGeometry width="102.75" height="23.75" as="geometry"/>
                </mxCell>
                <mxCell id="84" value="emptyPlaceNum" style="text;html=1;align=center;verticalAlign=middle;resizable=0;points=[];autosize=1;strokeColor=none;fillColor=none;" vertex="1" parent="109">
                    <mxGeometry x="2.446428571428571" y="2.3749999999999996" width="100" height="20" as="geometry"/>
                </mxCell>
                <mxCell id="77" value="" style="group" vertex="1" connectable="0" parent="1">
                    <mxGeometry x="414" y="670" width="120" height="60" as="geometry"/>
                </mxCell>
                <mxCell id="78" value="" style="rounded=1;whiteSpace=wrap;html=1;" vertex="1" parent="77">
                    <mxGeometry width="120" height="60" as="geometry"/>
                </mxCell>
                <mxCell id="79" value="Car" style="text;html=1;align=center;verticalAlign=middle;resizable=0;points=[];autosize=1;strokeColor=none;fillColor=none;" vertex="1" parent="77">
                    <mxGeometry x="45" width="30" height="20" as="geometry"/>
                </mxCell>
                <mxCell id="80" value="number" style="text;html=1;align=center;verticalAlign=middle;resizable=0;points=[];autosize=1;strokeColor=none;fillColor=none;" vertex="1" parent="77">
                    <mxGeometry x="30" y="40" width="60" height="20" as="geometry"/>
                </mxCell>
                <mxCell id="91" value="in" style="whiteSpace=wrap;html=1;" vertex="1" parent="1">
                    <mxGeometry x="190" y="480" width="60" height="20" as="geometry"/>
                </mxCell>
                <mxCell id="92" value="out" style="whiteSpace=wrap;html=1;" vertex="1" parent="1">
                    <mxGeometry x="250" y="480" width="60" height="20" as="geometry"/>
                </mxCell>
                <mxCell id="104" style="edgeStyle=none;html=1;exitX=0.5;exitY=1;exitDx=0;exitDy=0;" edge="1" parent="1" source="75" target="73">
                    <mxGeometry relative="1" as="geometry"/>
                </mxCell>
                <mxCell id="105" style="edgeStyle=none;html=1;exitX=0.5;exitY=1;exitDx=0;exitDy=0;" edge="1" parent="1" source="72">
                    <mxGeometry relative="1" as="geometry">
                        <mxPoint x="474" y="670" as="targetPoint"/>
                    </mxGeometry>
                </mxCell>
                <mxCell id="107" value="" style="group" vertex="1" connectable="0" parent="1">
                    <mxGeometry x="205" y="540" width="90" height="20" as="geometry"/>
                </mxCell>
                <mxCell id="106" value="" style="rounded=1;whiteSpace=wrap;html=1;" vertex="1" parent="107">
                    <mxGeometry width="90" height="20" as="geometry"/>
                </mxCell>
                <mxCell id="93" value="emptyNum" style="text;html=1;align=center;verticalAlign=middle;resizable=0;points=[];autosize=1;strokeColor=none;fillColor=none;" vertex="1" parent="107">
                    <mxGeometry x="10" width="70" height="20" as="geometry"/>
                </mxCell>
            </root>
        </mxGraphModel>
    </diagram>
</mxfile>